<svg xmlns="http://www.w3.org/2000/svg" viewBox="0 0 920 680" role="img" aria-labelledby="title desc">
  <title id="title">Solar manufacturing system</title>
  <desc id="desc">Solar panels, battery modules, appliance bodies, and fabrication equipment arranged as a clean industrial scene.</desc>
  <defs>
    <linearGradient id="floor" x1="0" x2="1" y1="0" y2="1">
      <stop offset="0" stop-color="#314fb0"/>
      <stop offset="1" stop-color="#092033"/>
    </linearGradient>
    <linearGradient id="panel" x1="0" x2="1">
      <stop offset="0" stop-color="#143777"/>
      <stop offset="1" stop-color="#2b65c7"/>
    </linearGradient>
    <filter id="shadow" x="-20%" y="-20%" width="140%" height="140%">
      <feDropShadow dx="0" dy="20" stdDeviation="18" flood-color="#02101c" flood-opacity=".3"/>
    </filter>
  </defs>
  <rect width="920" height="680" rx="18" fill="url(#floor)"/>
  <circle cx="754" cy="116" r="90" fill="#ffd84f"/>
  <circle cx="105" cy="578" r="210" fill="#ff7214" opacity=".72"/>
  <circle cx="820" cy="525" r="46" fill="#079b6c"/>

  <g opacity=".28" stroke="#fff" stroke-width="2">
    <path d="M70 114h780M70 194h780M70 274h780M70 354h780M70 434h780M70 514h780"/>
    <path d="M158 76v520M278 76v520M398 76v520M518 76v520M638 76v520M758 76v520"/>
  </g>

  <g filter="url(#shadow)">
    <g transform="translate(92 102)">
      <path d="M0 64 250 0l172 94-260 70Z" fill="url(#panel)"/>
      <path d="M42 68 247 18l126 69-211 56Z" fill="#0d2758"/>
      <g stroke="#74a7ff" stroke-opacity=".72" stroke-width="2">
        <path d="m80 58 122 72M125 47l122 72M170 36l122 72M215 25l122 72"/>
        <path d="M69 86 280 34M106 108l211-52M144 130l211-52"/>
      </g>
      <path d="M0 64v42l162 94v-36Z" fill="#142b70"/>
      <path d="m162 164 260-70v38l-260 68Z" fill="#06182d"/>
    </g>

    <g transform="translate(460 238)">
      <rect x="0" y="70" width="274" height="144" rx="12" fill="#fffaf1"/>
      <rect x="24" y="34" width="226" height="84" rx="12" fill="#ff7214"/>
      <rect x="52" y="0" width="170" height="62" rx="18" fill="#ffd84f"/>
      <rect x="31" y="144" width="82" height="42" rx="8" fill="#233f97"/>
      <rect x="132" y="144" width="112" height="42" rx="8" fill="#079b6c"/>
      <path d="M86 214h116" stroke="#0c1c2c" stroke-width="20" stroke-linecap="round"/>
      <g fill="#0c1c2c">
        <circle cx="74" cy="224" r="24"/>
        <circle cx="214" cy="224" r="24"/>
      </g>
    </g>

    <g transform="translate(168 350)">
      <rect x="0" y="0" width="220" height="154" rx="12" fill="#fffaf1"/>
      <rect x="18" y="22" width="184" height="86" rx="10" fill="#dfe8f1"/>
      <path d="M40 40h140M40 58h140M40 76h140M40 94h140" stroke="#9badbf" stroke-width="7"/>
      <rect x="42" y="123" width="54" height="15" rx="8" fill="#233f97"/>
      <rect x="116" y="123" width="62" height="15" rx="8" fill="#ff7214"/>
    </g>

    <g transform="translate(588 92)">
      <rect x="0" y="0" width="168" height="86" rx="12" fill="#fffaf1"/>
      <rect x="20" y="18" width="34" height="50" rx="7" fill="#079b6c"/>
      <rect x="67" y="18" width="34" height="50" rx="7" fill="#079b6c"/>
      <rect x="114" y="18" width="34" height="50" rx="7" fill="#079b6c"/>
      <path d="M24 34h26M71 34h26M118 34h26" stroke="#fff" stroke-width="4"/>
    </g>

    <g transform="translate(568 482)">
      <path d="M0 52h196" stroke="#ffd84f" stroke-width="18" stroke-linecap="round"/>
      <rect x="26" y="0" width="142" height="86" rx="12" fill="#ffffff"/>
      <path d="M54 58 86 24l24 24 28-36" fill="none" stroke="#233f97" stroke-width="10" stroke-linecap="round" stroke-linejoin="round"/>
      <circle cx="45" cy="100" r="18" fill="#0c1c2c"/>
      <circle cx="151" cy="100" r="18" fill="#0c1c2c"/>
    </g>
  </g>
</svg>
